<?xml version="1.0" encoding="utf-8"?>
<!-- Generator: Adobe Illustrator 25.3.1, SVG Export Plug-In . SVG Version: 6.00 Build 0)  -->
<svg version="1.1" id="Layer_1" xmlns="http://www.w3.org/2000/svg" xmlnsXlink="http://www.w3.org/1999/xlink" x="0px" y="0px"
	 viewBox="0 0 194.5 289.5" style="enable-background:new 0 0 194.5 289.5;" xmlSpace="preserve">
<style type="text/css">
	.st0{clip-path:url(#SVGID_2_);fill:url(#SVGID_3_);}
	.st1{clip-path:url(#SVGID_5_);fill:url(#SVGID_6_);}
	.st2{clip-path:url(#SVGID_8_);fill:url(#SVGID_9_);}
	.st3{clip-path:url(#SVGID_11_);fill:url(#SVGID_12_);}
</style>
<g>
	<g>
		<defs>
			<path id="SVGID_1_" d="M99.8,97.3c24.8,0.1,45,20.4,45,45.2v2.3v2.3c0,24.9-20.3,45.2-45.2,45.2h-2.2v0h-2.3
				c-52.4,0-95,42.6-95,95v2.3h49.8v-2.3c0-24.9,20.3-45.2,45.2-45.2h2.2v0h2.3c52.4,0,95-42.6,95-95v-2.3v-2.3
				c0-27.8-12-52.9-31.2-70.3C146.6,87.6,124.3,97.1,99.8,97.3"/>
		</defs>
		<clipPath id="SVGID_2_">
			<use xlinkHref="#SVGID_1_"  style="overflow:visible;"/>
		</clipPath>
		
			<linearGradient id="SVGID_3_" gradientUnits="userSpaceOnUse" x1="5562.6191" y1="-1140.729" x2="5563.6191" y2="-1140.729" gradientTransform="matrix(0 262.7973 262.7973 0 299877.7812 -1461758.875)">
			<stop  offset="0" style="stop-color:#1C75BC"/>
			<stop  offset="0.4154" style="stop-color:#27AAE1"/>
			<stop  offset="1" style="stop-color:#27AAE1"/>
		</linearGradient>
		<rect x="0.1" y="72.2" class="st0" width="194.5" height="217.3"/>
	</g>
	<g>
		<defs>
			<path id="SVGID_4_" d="M97.3,47.5L97.3,47.5l1.8,0c0.2,0,0.5,0,0.7,0c-0.1,0-0.2,0-0.3,0H97.3z"/>
		</defs>
		<clipPath id="SVGID_5_">
			<use xlinkHref="#SVGID_4_"  style="overflow:visible;"/>
		</clipPath>
		
			<linearGradient id="SVGID_6_" gradientUnits="userSpaceOnUse" x1="5564.9995" y1="-1148.1248" x2="5565.9683" y2="-1148.1248" gradientTransform="matrix(0 198.1214 198.1214 0 227566.625 -1102463.25)">
			<stop  offset="0" style="stop-color:#1C75BC"/>
			<stop  offset="0.4154" style="stop-color:#27AAE1"/>
			<stop  offset="1" style="stop-color:#27AAE1"/>
		</linearGradient>
		<rect x="97.3" y="47.5" class="st1" width="2.5" height="0"/>
	</g>
	<g>
		<defs>
			<path id="SVGID_7_" d="M144.3,0v2.3c0,24.9-20.3,45.2-45.2,45.2h-1.8v0H95c-52.4,0-95,42.6-95,95v2.3v2.3c0,27.8,12,52.8,31,70.1
				c16.9-15.4,39.3-24.9,63.9-24.9C70,192.2,49.8,171.9,49.8,147v-2.3v-2.3c0-24.9,20.3-45.2,45.2-45.2h1.8v0h2.3c0.2,0,0.5,0,0.7,0
				h0c7.5-0.1,14.8-1,21.9-2.7c0.1,0,0.3-0.1,0.4-0.1c1.2-0.3,2.4-0.6,3.5-1c0.3-0.1,0.6-0.2,0.8-0.2c1.1-0.3,2.1-0.7,3.2-1
				c0.4-0.1,0.7-0.2,1.1-0.4c1-0.4,2-0.7,3-1.1c0.4-0.2,0.8-0.3,1.2-0.5c1-0.4,1.9-0.8,2.9-1.2c0.4-0.2,0.8-0.4,1.2-0.5
				c0.9-0.4,1.8-0.9,2.8-1.3c0.4-0.2,0.8-0.4,1.2-0.6c0.9-0.5,1.8-1,2.7-1.4c0.4-0.2,0.8-0.4,1.2-0.7c0.9-0.5,1.7-1,2.6-1.6
				c0.4-0.2,0.7-0.5,1.1-0.7c0.9-0.6,1.7-1.1,2.6-1.7c0.3-0.2,0.7-0.5,1-0.7c0.9-0.6,1.7-1.2,2.6-1.9c0.3-0.2,0.6-0.4,0.8-0.7
				c0.9-0.7,1.7-1.4,2.6-2.1c0.2-0.2,0.4-0.3,0.6-0.5c0.9-0.8,1.8-1.6,2.7-2.4c18.9-17.4,30.8-42.3,30.8-69.9V0H144.3z"/>
		</defs>
		<clipPath id="SVGID_8_">
			<use xlinkHref="#SVGID_7_"  style="overflow:visible;"/>
		</clipPath>
		
			<linearGradient id="SVGID_9_" gradientUnits="userSpaceOnUse" x1="5542.5132" y1="-1078.2549" x2="5543.5132" y2="-1078.2549" gradientTransform="matrix(0 -149.5435 -149.5435 0 -161148.9531 829055.5)">
			<stop  offset="0" style="stop-color:#BF1F63"/>
			<stop  offset="0.5271" style="stop-color:#FC2350"/>
			<stop  offset="1" style="stop-color:#FC2350"/>
		</linearGradient>
		<rect class="st2" width="194.1" height="217.2"/>
	</g>
	<g>
		<defs>
			<path id="SVGID_10_" d="M95.1,242c-0.1,0-0.1,0-0.2,0C94.9,242,95,242,95.1,242l2.2,0v0H95.1z"/>
		</defs>
		<clipPath id="SVGID_11_">
			<use xlinkHref="#SVGID_10_"  style="overflow:visible;"/>
		</clipPath>
		
			<linearGradient id="SVGID_12_" gradientUnits="userSpaceOnUse" x1="-399.074" y1="242.0121" x2="-398.074" y2="242.0121" gradientTransform="matrix(0 -6.501000e-03 -6.501000e-03 0 6043.2192 -1638.1573)">
			<stop  offset="0" style="stop-color:#BF1F63"/>
			<stop  offset="0.5271" style="stop-color:#FC2350"/>
			<stop  offset="1" style="stop-color:#FC2350"/>
		</linearGradient>
		<rect x="94.9" y="242" class="st3" width="2.4" height="0"/>
	</g>
</g>
</svg>
