<?xml version="1.0" encoding="UTF-8" standalone="no"?>
<svg xmlnsDc="http://purl.org/dc/elements/1.1/"
  xmlnsCc="http://creativecommons.org/ns#"
  xmlnsRdf="http://www.w3.org/1999/02/22-rdf-syntax-ns#"
  xmlnsSvg="http://www.w3.org/2000/svg"
  xmlns="http://www.w3.org/2000/svg"
  xmlnsSodipodi="http://sodipodi.sourceforge.net/DTD/sodipodi-0.dtd"
  xmlnsInkscape="http://www.inkscape.org/namespaces/inkscape" version="1.1" id="svg2" xmlSpace="preserve" width="775.008" height="264.67334" viewBox="0 0 775.008 264.67334" sodipodiDocname="OPTIO_LOGO-02 [Converted].ai">
  <metadata id="metadata8">
  </metadata>
  <defs id="defs6">
    <clipPath clipPathUnits="userSpaceOnUse" id="clipPath18">
      <path d="M 0,198.505 H 581.256 V 0 H 0 Z" id="path16" />
    </clipPath>
    <linearGradient x1="0" y1="0" x2="1" y2="0" gradientUnits="userSpaceOnUse" gradientTransform="matrix(0,-180.1882,180.1882,0,66.711052,141.5076)" spreadMethod="pad" id="linearGradient54">
      <stop style="stop-opacity:1;stop-color:#1c75bc" offset="0" id="stop46" />
      <stop style="stop-opacity:1;stop-color:#1c75bc" offset="0.00357495" id="stop48" />
      <stop style="stop-opacity:1;stop-color:#27aae1" offset="0.415435" id="stop50" />
      <stop style="stop-opacity:1;stop-color:#27aae1" offset="1" id="stop52" />
    </linearGradient>
    <linearGradient x1="0" y1="0" x2="1" y2="0" gradientUnits="userSpaceOnUse" gradientTransform="matrix(0,-135.2,135.2,0,67.56105,141.4366)" spreadMethod="pad" id="linearGradient78">
      <stop style="stop-opacity:1;stop-color:#1c75bc" offset="0" id="stop70" />
      <stop style="stop-opacity:1;stop-color:#1c75bc" offset="0.00357495" id="stop72" />
      <stop style="stop-opacity:1;stop-color:#27aae1" offset="0.415435" id="stop74" />
      <stop style="stop-opacity:1;stop-color:#27aae1" offset="1" id="stop76" />
    </linearGradient>
    <linearGradient x1="0" y1="0" x2="1" y2="0" gradientUnits="userSpaceOnUse" gradientTransform="matrix(0,102.5352,-102.5352,0,66.544548,55.525223)" spreadMethod="pad" id="linearGradient102">
      <stop style="stop-opacity:1;stop-color:#bf1f63" offset="0" id="stop94" />
      <stop style="stop-opacity:1;stop-color:#bf1f63" offset="0.00444253" id="stop96" />
      <stop style="stop-opacity:1;stop-color:#fc2350" offset="0.527093" id="stop98" />
      <stop style="stop-opacity:1;stop-color:#fc2350" offset="1" id="stop100" />
    </linearGradient>
    <linearGradient x1="0" y1="0" x2="1" y2="0" gradientUnits="userSpaceOnUse" gradientTransform="matrix(0,0.004457,-0.004457,0,4004.5112,1263.8162)" spreadMethod="pad" id="linearGradient126">
      <stop style="stop-opacity:1;stop-color:#bf1f63" offset="0" id="stop118" />
      <stop style="stop-opacity:1;stop-color:#bf1f63" offset="0.00444253" id="stop120" />
      <stop style="stop-opacity:1;stop-color:#fc2350" offset="0.527093" id="stop122" />
      <stop style="stop-opacity:1;stop-color:#fc2350" offset="1" id="stop124" />
    </linearGradient>
  </defs>
  <sodipodiNamedview pagecolor="#ffffff" bordercolor="#666666" borderopacity="1" objecttolerance="10" gridtolerance="10" guidetolerance="10" inkscapePageopacity="0" inkscapePageshadow="2" inkscapeWindow-width="640" inkscapeWindow-height="480" id="namedview4" />
  <g id="g10" inkscapeGroupmode="layer" inkscapeLabel="OPTIO_LOGO-02 [Converted]" transform="matrix(1.3333333,0,0,-1.3333333,0,264.67333)">
    <g id="g12">
      <g id="g14" clip-path="url(#clipPath18)">
        <g id="g20" transform="translate(247.3208,96.5354)">
          <path d="m 0,0 c 0,-16.739 -13.619,-30.358 -30.358,-30.358 h -3.036 c -16.739,0 -30.357,13.619 -30.357,30.358 v 3.036 c 0,16.738 13.618,30.358 30.357,30.358 h 3.036 C -13.619,33.394 0,19.774 0,3.036 Z m -30.358,66.787 h -3.036 c -34.645,0 -62.922,-27.78 -63.731,-62.233 h -0.02 V 3.036 0 -92.592 h 33.394 v 36.543 c 9.031,-4.91 19.375,-7.702 30.357,-7.702 h 3.036 c 35.153,0 63.752,28.599 63.752,63.751 v 3.036 c 0,35.152 -28.599,63.751 -63.752,63.751" style="fill:#7d848e;fill-opacity:1;fill-rule:nonzero;stroke:none" id="path22" />
        </g>
        <g id="g24" transform="translate(327.7686,96.5354)">
          <path d="M 0,0 V 33.394 H 45.537 V 66.787 H 0 V 91.073 H -33.395 V 66.787 33.394 0 c 0,-35.152 28.6,-63.751 63.753,-63.751 h 16.697 v 33.393 H 30.358 C 13.619,-30.358 0,-16.739 0,0" style="fill:#7d848e;fill-opacity:1;fill-rule:nonzero;stroke:none" id="path26" />
        </g>
        <path d="m 399.109,32.784 h 33.394 v 130.538 h -33.394 z" style="fill:#7d848e;fill-opacity:1;fill-rule:nonzero;stroke:none" id="path28" />
        <g id="g30" transform="translate(547.8613,96.5354)">
          <path d="m 0,0 c 0,-16.739 -13.617,-30.358 -30.356,-30.358 h -3.037 c -16.74,0 -30.358,13.619 -30.358,30.358 v 3.036 c 0,16.738 13.618,30.358 30.358,30.358 h 3.037 C -13.617,33.394 0,19.774 0,3.036 Z m -30.356,66.787 h -3.037 c -35.153,0 -63.752,-28.599 -63.752,-63.751 V 0 c 0,-35.152 28.599,-63.751 63.752,-63.751 h 3.037 c 35.152,0 63.751,28.599 63.751,63.751 v 3.036 c 0,35.152 -28.599,63.751 -63.751,63.751" style="fill:#7d848e;fill-opacity:1;fill-rule:nonzero;stroke:none" id="path32" />
        </g>
      </g>
    </g>
    <g id="g34">
      <g id="g36">
        <g id="g42">
          <g id="g44">
            <path d="m 68.431,131.825 c 17.017,-0.101 30.832,-13.973 30.832,-31.015 v 0 -1.55 -1.552 c 0,-17.104 -13.915,-31.019 -31.02,-31.019 v 0 h -1.514 v 0.005 h -1.55 C 29.26,66.694 0.037,37.471 0.037,1.551 v 0 V 0 h 34.122 v 1.551 c 0,17.106 13.915,31.022 31.02,31.022 v 0 h 1.513 v -0.007 h 1.551 c 35.919,0 65.142,29.224 65.142,65.142 v 0 1.552 1.55 c 0,19.089 -8.253,36.287 -21.38,48.212 v 0 C 100.509,138.448 85.217,131.949 68.431,131.825" style="fill:url(#linearGradient54);stroke:none" id="path56" />
          </g>
        </g>
      </g>
    </g>
    <g id="g58">
      <g id="g60">
        <g id="g66">
          <g id="g68">
            <path d="m 66.692,165.952 v -0.016 h 1.256 c 0.161,0 0.321,0.008 0.483,0.011 v 0 c -0.063,0.001 -0.125,0.005 -0.188,0.005 v 0 z" style="fill:url(#linearGradient78);stroke:none" id="path80" />
          </g>
        </g>
      </g>
    </g>
    <g id="g82">
      <g id="g84">
        <g id="g90">
          <g id="g92">
            <path d="m 98.968,198.505 v -1.55 c 0,-17.104 -13.916,-31.019 -31.02,-31.019 v 0 h -1.256 v 0.016 h -1.55 C 29.222,165.952 0,136.729 0,100.81 v 0 -3.102 C 0,78.68 8.204,61.533 21.257,49.613 v 0 c 11.567,10.579 26.948,17.05 43.816,17.077 v 0 C 47.999,66.728 34.121,80.627 34.121,97.708 v 0 1.552 1.55 c 0,17.105 13.917,31.021 31.021,31.021 v 0 h 1.255 v -0.017 h 1.551 c 0.162,0 0.321,0.01 0.484,0.011 v 0 h -0.001 c 5.162,0.039 10.18,0.684 14.995,1.861 v 0 c 0.091,0.023 0.184,0.041 0.275,0.064 v 0 c 0.811,0.201 1.612,0.428 2.412,0.659 v 0 c 0.192,0.056 0.386,0.108 0.578,0.165 v 0 c 0.741,0.224 1.474,0.466 2.203,0.714 v 0 c 0.243,0.082 0.486,0.162 0.727,0.246 v 0 c 0.695,0.247 1.383,0.51 2.068,0.779 v 0 c 0.265,0.104 0.531,0.206 0.794,0.313 v 0 c 0.663,0.27 1.318,0.555 1.971,0.846 v 0 c 0.275,0.123 0.55,0.247 0.822,0.373 v 0 c 0.638,0.296 1.268,0.602 1.894,0.917 v 0 c 0.277,0.14 0.552,0.28 0.825,0.424 v 0 c 0.618,0.322 1.229,0.653 1.834,0.993 v 0 c 0.27,0.153 0.537,0.308 0.804,0.464 v 0 c 0.601,0.351 1.198,0.708 1.788,1.077 v 0 c 0.255,0.16 0.508,0.325 0.761,0.488 v 0 c 0.591,0.382 1.179,0.77 1.758,1.17 v 0 c 0.232,0.161 0.461,0.329 0.692,0.492 v 0 c 0.588,0.419 1.174,0.842 1.748,1.281 v 0 c 0.197,0.149 0.388,0.306 0.582,0.457 v 0 c 0.598,0.468 1.193,0.939 1.776,1.426 v 0 c 0.134,0.112 0.263,0.231 0.396,0.344 v 0 c 0.632,0.538 1.26,1.083 1.871,1.644 v 0 c 12.951,11.915 21.084,28.989 21.084,47.933 v 0 1.55 z" style="fill:url(#linearGradient102);stroke:none" id="path104" />
          </g>
        </g>
      </g>
    </g>
    <g id="g106">
      <g id="g108">
        <g id="g114">
          <g id="g116">
            <path d="m 65.179,32.573 c -0.036,0 -0.071,-0.004 -0.106,-0.004 v 0 c 0.022,0 0.046,-0.003 0.069,-0.003 v 0 h 1.55 v 0.007 z" style="fill:url(#linearGradient126);stroke:none" id="path128" />
          </g>
        </g>
      </g>
    </g>
  </g>
</svg>
